<mxfile host="app.diagrams.net" modified="2021-07-17T08:39:26.105Z" agent="5.0 (Windows NT 10.0; Win64; x64) AppleWebKit/537.36 (KHTML, like Gecko) Chrome/91.0.4472.124 Safari/537.36" etag="JZd4n37aI3HyA3qY9Z6W" version="14.9.0" type="github">
  <diagram id="4B2oewPHgKk_zG6b4dNS" name="Page-1">
    <mxGraphModel dx="1632" dy="1536" grid="1" gridSize="10" guides="1" tooltips="1" connect="1" arrows="1" fold="1" page="1" pageScale="1" pageWidth="850" pageHeight="1100" math="0" shadow="0">
      <root>
        <mxCell id="0" />
        <mxCell id="1" parent="0" />
        <mxCell id="vvWiPjdY0bLsKzUBkL9z-1" value="Amazon CloudWatch" style="outlineConnect=0;fontColor=#232F3E;gradientColor=none;strokeColor=#ffffff;fillColor=#232F3E;dashed=0;verticalLabelPosition=middle;verticalAlign=bottom;align=center;html=1;whiteSpace=wrap;fontSize=10;fontStyle=1;spacing=3;shape=mxgraph.aws4.productIcon;prIcon=mxgraph.aws4.cloudwatch;" parent="1" vertex="1">
          <mxGeometry x="10" y="180" width="80" height="110" as="geometry" />
        </mxCell>
        <mxCell id="vvWiPjdY0bLsKzUBkL9z-2" value="Events Based on cron" style="text;html=1;align=center;verticalAlign=middle;resizable=0;points=[];autosize=1;strokeColor=none;" parent="1" vertex="1">
          <mxGeometry x="-10" y="160" width="130" height="20" as="geometry" />
        </mxCell>
        <mxCell id="vvWiPjdY0bLsKzUBkL9z-3" value="AWS Lambda" style="outlineConnect=0;fontColor=#232F3E;gradientColor=none;strokeColor=#ffffff;fillColor=#232F3E;dashed=0;verticalLabelPosition=middle;verticalAlign=bottom;align=center;html=1;whiteSpace=wrap;fontSize=10;fontStyle=1;spacing=3;shape=mxgraph.aws4.productIcon;prIcon=mxgraph.aws4.lambda;" parent="1" vertex="1">
          <mxGeometry x="200" y="140" width="80" height="100" as="geometry" />
        </mxCell>
        <mxCell id="vvWiPjdY0bLsKzUBkL9z-4" value="Amazon DynamoDB" style="outlineConnect=0;fontColor=#232F3E;gradientColor=none;strokeColor=#ffffff;fillColor=#232F3E;dashed=0;verticalLabelPosition=middle;verticalAlign=bottom;align=center;html=1;whiteSpace=wrap;fontSize=10;fontStyle=1;spacing=3;shape=mxgraph.aws4.productIcon;prIcon=mxgraph.aws4.dynamodb;" parent="1" vertex="1">
          <mxGeometry x="200" y="320" width="80" height="110" as="geometry" />
        </mxCell>
        <mxCell id="vvWiPjdY0bLsKzUBkL9z-5" value="" style="endArrow=classic;html=1;" parent="1" target="vvWiPjdY0bLsKzUBkL9z-3" edge="1">
          <mxGeometry width="50" height="50" relative="1" as="geometry">
            <mxPoint x="90" y="190.26315789473665" as="sourcePoint" />
            <mxPoint x="150" y="90" as="targetPoint" />
          </mxGeometry>
        </mxCell>
        <mxCell id="vvWiPjdY0bLsKzUBkL9z-6" value="Trigger NAS&lt;br&gt;&amp;nbsp;House keeping" style="text;html=1;align=center;verticalAlign=middle;resizable=0;points=[];autosize=1;strokeColor=none;" parent="1" vertex="1">
          <mxGeometry x="80" y="195" width="100" height="30" as="geometry" />
        </mxCell>
        <mxCell id="vvWiPjdY0bLsKzUBkL9z-7" value="" style="endArrow=classic;startArrow=classic;html=1;" parent="1" edge="1">
          <mxGeometry width="50" height="50" relative="1" as="geometry">
            <mxPoint x="240" y="320" as="sourcePoint" />
            <mxPoint x="240" y="230" as="targetPoint" />
          </mxGeometry>
        </mxCell>
        <mxCell id="vvWiPjdY0bLsKzUBkL9z-8" value="Text" style="text;html=1;align=center;verticalAlign=middle;resizable=0;points=[];autosize=1;strokeColor=none;" parent="1" vertex="1">
          <mxGeometry x="220" y="240" width="40" height="20" as="geometry" />
        </mxCell>
        <mxCell id="vvWiPjdY0bLsKzUBkL9z-9" value="Fetch NAS/Host details" style="text;html=1;align=center;verticalAlign=middle;resizable=0;points=[];autosize=1;strokeColor=none;" parent="1" vertex="1">
          <mxGeometry x="185" y="270" width="140" height="20" as="geometry" />
        </mxCell>
        <mxCell id="vvWiPjdY0bLsKzUBkL9z-12" value="" style="endArrow=classic;html=1;" parent="1" source="vvWiPjdY0bLsKzUBkL9z-3" edge="1">
          <mxGeometry width="50" height="50" relative="1" as="geometry">
            <mxPoint x="295" y="170" as="sourcePoint" />
            <mxPoint x="345" y="120" as="targetPoint" />
          </mxGeometry>
        </mxCell>
        <mxCell id="vvWiPjdY0bLsKzUBkL9z-13" value="" style="endArrow=classic;html=1;" parent="1" source="vvWiPjdY0bLsKzUBkL9z-3" edge="1">
          <mxGeometry width="50" height="50" relative="1" as="geometry">
            <mxPoint x="340" y="250" as="sourcePoint" />
            <mxPoint x="360" y="245" as="targetPoint" />
            <Array as="points">
              <mxPoint x="320" y="210" />
            </Array>
          </mxGeometry>
        </mxCell>
        <mxCell id="vvWiPjdY0bLsKzUBkL9z-15" value="Add Event to SSH Queue" style="text;html=1;align=center;verticalAlign=middle;resizable=0;points=[];autosize=1;strokeColor=none;" parent="1" vertex="1">
          <mxGeometry x="195" y="80" width="150" height="20" as="geometry" />
        </mxCell>
        <mxCell id="vvWiPjdY0bLsKzUBkL9z-16" value="AWS Lambda" style="outlineConnect=0;fontColor=#232F3E;gradientColor=none;strokeColor=#ffffff;fillColor=#232F3E;dashed=0;verticalLabelPosition=middle;verticalAlign=bottom;align=center;html=1;whiteSpace=wrap;fontSize=10;fontStyle=1;spacing=3;shape=mxgraph.aws4.productIcon;prIcon=mxgraph.aws4.lambda;" parent="1" vertex="1">
          <mxGeometry x="480" y="-40" width="80" height="100" as="geometry" />
        </mxCell>
        <mxCell id="vvWiPjdY0bLsKzUBkL9z-18" value="" style="endArrow=classic;html=1;" parent="1" edge="1">
          <mxGeometry width="50" height="50" relative="1" as="geometry">
            <mxPoint x="425" y="70" as="sourcePoint" />
            <mxPoint x="475" y="20" as="targetPoint" />
          </mxGeometry>
        </mxCell>
        <mxCell id="vvWiPjdY0bLsKzUBkL9z-19" value="Triggers" style="text;html=1;align=center;verticalAlign=middle;resizable=0;points=[];autosize=1;strokeColor=none;" parent="1" vertex="1">
          <mxGeometry x="430" y="50" width="60" height="20" as="geometry" />
        </mxCell>
        <mxCell id="vvWiPjdY0bLsKzUBkL9z-28" value="Amazon S3" style="outlineConnect=0;fontColor=#232F3E;gradientColor=none;strokeColor=#ffffff;fillColor=#232F3E;dashed=0;verticalLabelPosition=middle;verticalAlign=bottom;align=center;html=1;whiteSpace=wrap;fontSize=10;fontStyle=1;spacing=3;shape=mxgraph.aws4.productIcon;prIcon=mxgraph.aws4.s3;" parent="1" vertex="1">
          <mxGeometry x="720" y="-100" width="80" height="100" as="geometry" />
        </mxCell>
        <mxCell id="vvWiPjdY0bLsKzUBkL9z-29" value="" style="endArrow=classic;startArrow=classic;html=1;" parent="1" source="vvWiPjdY0bLsKzUBkL9z-16" target="vvWiPjdY0bLsKzUBkL9z-28" edge="1">
          <mxGeometry width="50" height="50" relative="1" as="geometry">
            <mxPoint x="560" y="35" as="sourcePoint" />
            <mxPoint x="610" y="-15" as="targetPoint" />
            <Array as="points">
              <mxPoint x="610" />
            </Array>
          </mxGeometry>
        </mxCell>
        <mxCell id="vvWiPjdY0bLsKzUBkL9z-30" value="Download SSH &lt;br&gt;Key For Host" style="text;html=1;align=center;verticalAlign=middle;resizable=0;points=[];autosize=1;strokeColor=none;" parent="1" vertex="1">
          <mxGeometry x="595" y="-35" width="100" height="30" as="geometry" />
        </mxCell>
        <mxCell id="vvWiPjdY0bLsKzUBkL9z-40" value="" style="points=[[0,0,0],[0.25,0,0],[0.5,0,0],[0.75,0,0],[1,0,0],[0,1,0],[0.25,1,0],[0.5,1,0],[0.75,1,0],[1,1,0],[0,0.25,0],[0,0.5,0],[0,0.75,0],[1,0.25,0],[1,0.5,0],[1,0.75,0]];outlineConnect=0;fontColor=#232F3E;gradientColor=#945DF2;gradientDirection=north;fillColor=#5A30B5;strokeColor=#ffffff;dashed=0;verticalLabelPosition=bottom;verticalAlign=top;align=center;html=1;fontSize=12;fontStyle=0;aspect=fixed;shape=mxgraph.aws4.resourceIcon;resIcon=mxgraph.aws4.managed_streaming_for_kafka;" parent="1" vertex="1">
          <mxGeometry x="362" y="225" width="78" height="78" as="geometry" />
        </mxCell>
        <mxCell id="vvWiPjdY0bLsKzUBkL9z-41" value="Add Message to Kafka" style="text;html=1;align=center;verticalAlign=middle;resizable=0;points=[];autosize=1;strokeColor=none;" parent="1" vertex="1">
          <mxGeometry x="285" y="190" width="140" height="20" as="geometry" />
        </mxCell>
        <mxCell id="vvWiPjdY0bLsKzUBkL9z-44" value="Pub" style="text;html=1;align=center;verticalAlign=middle;resizable=0;points=[];autosize=1;strokeColor=none;" parent="1" vertex="1">
          <mxGeometry x="305" y="205" width="40" height="20" as="geometry" />
        </mxCell>
        <mxCell id="vvWiPjdY0bLsKzUBkL9z-46" value="" style="verticalLabelPosition=bottom;html=1;verticalAlign=top;align=center;strokeColor=none;fillColor=#00BEF2;shape=mxgraph.azure.virtual_machine;" parent="1" vertex="1">
          <mxGeometry x="630" y="155" width="90" height="55" as="geometry" />
        </mxCell>
        <mxCell id="vvWiPjdY0bLsKzUBkL9z-49" value="Agent" style="outlineConnect=0;fontColor=#232F3E;gradientColor=none;strokeColor=#232F3E;fillColor=#ffffff;dashed=0;verticalLabelPosition=bottom;verticalAlign=top;align=center;html=1;fontSize=12;fontStyle=0;aspect=fixed;shape=mxgraph.aws4.resourceIcon;resIcon=mxgraph.aws4.agent;" parent="1" vertex="1">
          <mxGeometry x="620" y="195" width="30" height="30" as="geometry" />
        </mxCell>
        <mxCell id="vvWiPjdY0bLsKzUBkL9z-50" value="" style="endArrow=classic;startArrow=classic;html=1;exitX=1;exitY=0.5;exitDx=0;exitDy=0;exitPerimeter=0;" parent="1" source="vvWiPjdY0bLsKzUBkL9z-40" target="vvWiPjdY0bLsKzUBkL9z-49" edge="1">
          <mxGeometry width="50" height="50" relative="1" as="geometry">
            <mxPoint x="520" y="260" as="sourcePoint" />
            <mxPoint x="570" y="210" as="targetPoint" />
          </mxGeometry>
        </mxCell>
        <mxCell id="vvWiPjdY0bLsKzUBkL9z-51" value="Subscribe to &lt;br&gt;Cleanup Event" style="text;html=1;align=center;verticalAlign=middle;resizable=0;points=[];autosize=1;strokeColor=none;" parent="1" vertex="1">
          <mxGeometry x="505" y="240" width="90" height="30" as="geometry" />
        </mxCell>
        <mxCell id="vvWiPjdY0bLsKzUBkL9z-53" value="" style="endArrow=classic;html=1;" parent="1" source="vvWiPjdY0bLsKzUBkL9z-16" edge="1">
          <mxGeometry width="50" height="50" relative="1" as="geometry">
            <mxPoint x="560" y="47" as="sourcePoint" />
            <mxPoint x="640" y="120" as="targetPoint" />
          </mxGeometry>
        </mxCell>
        <mxCell id="vvWiPjdY0bLsKzUBkL9z-54" value="" style="shape=image;html=1;verticalAlign=top;verticalLabelPosition=bottom;labelBackgroundColor=#ffffff;imageAspect=0;aspect=fixed;image=https://cdn2.iconfinder.com/data/icons/stilllife/48x48/filesystems/gnome-fs-ssh.png" parent="1" vertex="1">
          <mxGeometry x="630" y="120" width="48" height="48" as="geometry" />
        </mxCell>
        <mxCell id="vvWiPjdY0bLsKzUBkL9z-58" value="Cleanup NAS&lt;br&gt;&amp;nbsp;Paths via ssh" style="text;html=1;align=center;verticalAlign=middle;resizable=0;points=[];autosize=1;strokeColor=none;" parent="1" vertex="1">
          <mxGeometry x="580" y="50" width="90" height="30" as="geometry" />
        </mxCell>
        <mxCell id="z48_-Iap8jLmUbb7nbzD-1" value="Amazon SNS" style="outlineConnect=0;fontColor=#232F3E;gradientColor=none;strokeColor=#ffffff;fillColor=#232F3E;dashed=0;verticalLabelPosition=middle;verticalAlign=bottom;align=center;html=1;whiteSpace=wrap;fontSize=10;fontStyle=1;spacing=3;shape=mxgraph.aws4.productIcon;prIcon=mxgraph.aws4.sns;" vertex="1" parent="1">
          <mxGeometry x="350" y="50" width="80" height="100" as="geometry" />
        </mxCell>
      </root>
    </mxGraphModel>
  </diagram>
</mxfile>
